<svg width="100%" height="100%" viewBox="0 0 1200 600" xmlns="http://www.w3.org/2000/svg">
  <defs>
    <radialGradient id="dark-gradient" cx="50%" cy="50%" r="70%">
      <stop offset="0%" stop-color="#1e3a8a" stop-opacity="0.8" />
      <stop offset="100%" stop-color="#0b172b" stop-opacity="0.95" />
    </radialGradient>
    
    <filter id="glow">
      <feGaussianBlur stdDeviation="2.5" result="coloredBlur"/>
      <feMerge>
        <feMergeNode in="coloredBlur"/>
        <feMergeNode in="SourceGraphic"/>
      </feMerge>
    </filter>
  </defs>

  <rect width="100%" height="100%" fill="url(#dark-gradient)" />
  
  <g filter="url(#glow)" stroke-width="1.5" stroke="#63b3ed" fill="#a5b4fc">
    
    <line x1="150" y1="100" x2="300" y2="250" stroke-opacity="0.3"/>
    <line x1="300" y1="250" x2="180" y2="450" stroke-opacity="0.3"/>
    <line x1="180" y1="450" x2="400" y2="500" stroke-opacity="0.3"/>
    <line x1="300" y1="250" x2="500" y2="150" stroke-opacity="0.3"/>
    <line x1="500" y1="150" x2="650" y2="300" stroke-opacity="0.3"/>
    <line x1="500" y1="150" x2="800" y2="80" stroke-opacity="0.3"/>
    <line x1="800" y1="80" x2="950" y2="250" stroke-opacity="0.3"/>
    <line x1="950" y1="250" x2="650" y2="300" stroke-opacity="0.3"/>
    <line x1="950" y1="250" x2="1100" y2="450" stroke-opacity="0.3"/>
    <line x1="650" y1="300" x2="850" y2="520" stroke-opacity="0.3"/>
    <line x1="850" y1="520" x2="1100" y2="450" stroke-opacity="0.3"/>

    <circle cx="150" cy="100" r="5" fill-opacity="0.7"/>
    <circle cx="300" cy="250" r="7" fill-opacity="0.7"/>
    <circle cx="180" cy="450" r="6" fill-opacity="0.7"/>
    <circle cx="400" cy="500" r="5" fill-opacity="0.7"/>
    <circle cx="500" cy="150" r="8" fill-opacity="0.7"/>
    <circle cx="650" cy="300" r="6" fill-opacity="0.7"/>
    <circle cx="800" cy="80" r="5" fill-opacity="0.7"/>
    <circle cx="950" cy="250" r="7" fill-opacity="0.7"/>
    <circle cx="1100" cy="450" r="8" fill-opacity="0.7"/>
    <circle cx="850" cy="520" r="6" fill-opacity="0.7"/>
  </g>
</svg>